<?xml version="1.0" encoding="UTF-8"?>
<svg id="_Слой_1" data-name="Слой_1" xmlns="http://www.w3.org/2000/svg" xmlns:xlink="http://www.w3.org/1999/xlink" version="1.1" viewBox="0 0 1000 800">
  <!-- Generator: Adobe Illustrator 30.2.1, SVG Export Plug-In . SVG Version: 2.1.1 Build 1)  -->
  <defs>
    <style>
      .st0 {
        fill: url(#_Безымянный_градиент);
      }

      .st1 {
        fill: url(#_Безымянный_градиент_3);
      }

      .st2 {
        fill: url(#_Безымянный_градиент_2);
      }

      .st3 {
        fill: url(#_Безымянный_градиент_5);
      }

      .st4 {
        fill: url(#_Безымянный_градиент_4);
      }

      .st5 {
        fill: url(#_Безымянный_градиент_7);
      }

      .st6 {
        isolation: isolate;
      }

      .st7 {
        fill: #fff;
      }

      .st8 {
        fill: #e30613;
      }

      .st9 {
        fill: url(#_Безымянный_градиент_6);
        stroke: #76110d;
        stroke-miterlimit: 10;
        stroke-width: 2px;
      }

      .st10 {
        fill: #323334;
      }

      .st11 {
        fill: #76110d;
      }

      .st12 {
        fill: #c9c8c8;
      }

      .st13 {
        fill: #dadada;
      }
    </style>
    <linearGradient id="_Безымянный_градиент" data-name="Безымянный градиент" x1="292.35" y1="535.21" x2="264.41" y2="587.98" gradientTransform="translate(0 801.42) scale(1 -1)" gradientUnits="userSpaceOnUse">
      <stop offset=".28" stop-color="#a5a5a5"/>
      <stop offset=".37" stop-color="#c1c0c0"/>
    </linearGradient>
    <linearGradient id="_Безымянный_градиент_2" data-name="Безымянный градиент 2" x1="372.84" y1="567.58" x2="354.47" y2="620.77" gradientTransform="translate(0 801.42) scale(1 -1)" gradientUnits="userSpaceOnUse">
      <stop offset=".28" stop-color="#777"/>
      <stop offset=".37" stop-color="#a1a09f"/>
    </linearGradient>
    <linearGradient id="_Безымянный_градиент_3" data-name="Безымянный градиент 3" x1="456.29" y1="580.56" x2="456.29" y2="625.64" gradientTransform="translate(0 801.42) scale(1 -1)" gradientUnits="userSpaceOnUse">
      <stop offset=".39" stop-color="#4d4c4d"/>
      <stop offset=".52" stop-color="#747474"/>
    </linearGradient>
    <linearGradient id="_Безымянный_градиент_4" data-name="Безымянный градиент 4" x1="544.47" y1="555.56" x2="566.34" y2="624.77" gradientTransform="translate(0 801.42) scale(1 -1)" gradientUnits="userSpaceOnUse">
      <stop offset=".02" stop-color="#d92e1f"/>
      <stop offset=".4" stop-color="#a4241b"/>
      <stop offset=".56" stop-color="#d63024"/>
    </linearGradient>
    <linearGradient id="_Безымянный_градиент_5" data-name="Безымянный градиент 5" x1="675.79" y1="498.78" x2="703.16" y2="556.85" gradientTransform="translate(0 801.42) scale(1 -1)" gradientUnits="userSpaceOnUse">
      <stop offset="0" stop-color="#721611"/>
      <stop offset=".4" stop-color="#731710"/>
      <stop offset=".68" stop-color="#a8251b"/>
    </linearGradient>
    <linearGradient id="_Безымянный_градиент_6" data-name="Безымянный градиент 6" x1="405.56" y1="568.55" x2="518.38" y2="568.55" gradientTransform="translate(0 801.42) scale(1 -1)" gradientUnits="userSpaceOnUse">
      <stop offset=".02" stop-color="#d92e1f"/>
      <stop offset=".4" stop-color="#a4241b"/>
      <stop offset=".56" stop-color="#d63024"/>
    </linearGradient>
    <linearGradient id="_Безымянный_градиент_7" data-name="Безымянный градиент 7" x1="491.15" y1="375.58" x2="757.56" y2="375.58" gradientTransform="translate(0 801.42) scale(1 -1)" gradientUnits="userSpaceOnUse">
      <stop offset=".39" stop-color="#4d4c4d"/>
      <stop offset=".52" stop-color="#747474"/>
    </linearGradient>
  </defs>
  <g id="_Слой_2">
    <path class="st10" d="M915.05,403.81c-8.19-3.31-11.9-4.75-24.83-8.97-6.32-2.07-10.79-4.44-19.72-9.17-11.63-6.17-19.08-11.4-27.98-17.43,0,0-5.87-3.98-34.39-22.47-38.41-24.9-75.1-39.27-92.18-45.4-12.68-4.56-22.85-8.21-37.6-11.47-29.84-6.6-53.54-6.11-76.13-5.5-23.55.63-18.54,1.42-68.14,4.65-24.26,1.58-29.21,2.3-41.47,4.52-5.12.93-25.63,4.84-51.82,16.05-25.06,10.73-43.59,24.03-44.48,24.77-15.42,12.66,18.07-9.56,53.2-22.48,16.25-5.97,45.47-15.19,78.87-16.51,19.04-.76,21.62-1.76,45.41-.73,10.23.45,25.58-2.12,26.59.31.89,2.12-5.99,3.96-13.29,9.6-9.58,7.39-17.67,15.66-33.94,32.1-15.73,15.89-16.61,18.83-23.92,21.89-9.07,3.8-16.52,2.96-28.43,2.3-16.34-.92-32.75.52-49.07-.46-40.28-2.42-82.89-.14-104.95,1.03-12.7.68-40.88,3.82-97.22,10.09-31.91,3.56-51.71,5.98-76.2,14.1-5.1,1.69-19.73,6.72-37.61,15.59-3.12,1.55-16.2,8.11-32.03,18.92-16.55,11.31-20,16.27-22.01,20.18-4.71,9.19-4.46,18.5-3.74,24.19-.03-3.35.27-15.18,8.94-22.96,5.14-4.63,10.95-5.78,17.73-7.04,8.47-1.57,10.53-.32,29.35.31,10.61.35,21.21,2.18,31.8,1.53,3.07-.19,7.6-.58,11.61,2.14,4.77,3.23,6.45,9.25,7.04,11.31,1.72,6.09.48,11.6,1.83,11.92,1.23.3,1.99-4.3,5.81-7.03,4.07-2.91,8.86-1.11,14.37-1.22,23.6-.47,13.24.26,27.29-.43,15.51-.75,22.95-.51,29.57-.18,15.25.75,13.07-1.05,34.33-.73,22.76.34,20.37-.72,27.21-.62,5.98.1,8.31-.19,11.53,3.18,1.96,2.05,1.61,4.68,2.76,4.89,2.41.45,5.62-9.77,8.56-15.89,9.28-19.34,30.36-27.56,35.77-29.66,2.51-.98,22.07-8.3,43.8-2.87,15.38,3.84,30.43,12.36,30.43,12.36,4.39,2.48,8.64,5.25,9.01,4.76.49-.66-6.09-7.17-13.84-12.42-2.94-1.99-13.77-9-30.88-12.84-10.16-2.28-17.12-2.23-17.12-2.75.03-.81,17.09-.68,29.66-.61,45.93.24,38.88-.43,66.64,0,29.66.46,23.67,1,55.95,1.53,21.94.36,34.48.26,58.09,1.22,19.16.78,27.29,1.1,37.08,1.31,30.3.64,24.11.73,50.75,1.02,15.04.16,48.75.25,59,.82,31.42,1.75,44.34,1.01,63.21,1.13,1.82.01,5.51,1.39,5.81,3.36.4,2.63-5.77,3.98-11.92,9.48-9.45,8.46-11.2,19.87-11.62,22.63-.49,3.21,3.88-7.4,22.04-19.11,4.39-2.83,12.22-8.94,22.6-9.33,6.69-.24,11.73,1.96,18.8,5.05,14.28,6.24,22.37,14.41,23.39,13.3.74-.82-3.23-5.66-4.94-7.74-3.37-4.1-6.54-6.68-7.45-7.4-7.34-5.84-12.61-6.6-12.38-7.79.36-1.82,12.17.23,29.81,0,9.1-.12,25.71-.27,15.66-4.33ZM332.65,422.47c-12.13,8.52-21.33,17.23-51.83,18.84-8.05.42-18.94.58-33.68.04-5.43-.19-21.11-.13-28.46,0-1.83.03-1.51-.83-10.68-10.27-4.06-4.17-16.98-2.57-20.5-2.17,24.5-8.8,46.27-14.33,63.05-17.65,36.55-7.23,77.78-11.11,84.39-11.27,10.62-.25,34.16,3.7,34.16,3.7,0,0-24.62,10.47-36.45,18.77h0ZM814.13,369.82c-4.44,3.09-12.25,3.38-13.49,3.34-39.44-1.22-80.92.4-121.38.31-80.71-.18-115.56,1.22-132.68.31-3.1-.17,1.66-4.55,22.31-27.21,26.94-29.55,30.73-35.81,42.81-41.89,12.45-6.26,23.47-7.18,33.93-7.95,27.85-2.04,61.19,2.7,115.88,34.24,57.78,33.33,23.79,14.16,45.24,25.38,2.19,1.14,8.94,3.3,9.48,7.64.37,2.91.07,4.31-2.1,5.83h0Z"/>
  </g>
  <g id="_Слой_3">
    <g>
      <path class="st0" d="M314.51,241.89c-21.72,8.51-42.06,19.16-60.65,31.64l-11.31-16.38c19.86-16.69,42.4-31.29,67.06-43.33l4.9,28.07h0Z"/>
      <path class="st13" d="M314.6,241.94c-10.53,4.71-20.73,9.52-30.87,14.89-5.03,2.67-10.01,5.43-14.97,8.23-4.97,2.79-9.86,5.72-14.67,8.79l-.33.21-.21-.32c-3.21-4.78-7.89-11.64-11.29-16.4l-.19-.27.25-.22c20.13-17.61,42.66-32.52,66.93-43.8l1.02-.48c1.5,8.67,3.04,20.56,4.34,29.35h0v.02ZM314.42,241.84c-1.74-8.12-4.1-19.88-5.64-27.88l1.19.61c-17.76,9.1-34.99,19.24-51.25,30.82-5.44,3.83-10.78,7.82-15.94,12.03l.07-.49c3.35,4.82,7.9,11.7,11.33,16.36l-.54-.1c4.68-3.29,9.44-6.47,14.31-9.5,4.87-3.02,9.87-5.82,14.98-8.42,10.13-5.18,20.76-9.83,31.5-13.45h0v.02Z"/>
    </g>
    <g>
      <path class="st2" d="M400.48,183.43l-3.89,37.83c-23.59,2.89-46.31,8.13-67.82,15.42l-5.13-29.34c23.97-10.44,49.75-18.54,76.84-23.91h0Z"/>
      <path class="st13" d="M400.48,183.43c-.98,11.31-1.94,26.72-2.97,37.92l-.06.72c-5.98.85-11.95,1.78-17.89,2.9-17.62,3.31-35.03,7.82-51.97,13.69-.16-1.08-5.32-30.8-5.53-32.18l1.02-.43c24.77-10.59,50.82-18.25,77.4-22.62h0ZM400.48,183.43c-26.12,6.09-51.75,14.33-76.28,25.2l.83-1.54,5.21,29.33-1.95-1.16c16.58-5.58,33.6-9.84,50.87-12.61,5.75-.92,11.52-1.72,17.32-2.31l-.81.83c1.35-10.77,3.41-26.76,4.81-37.74h0Z"/>
    </g>
    <g>
      <path class="st1" d="M499.67,176.3l-20.56,44.56c-12.94-1.46-26.14-2.21-39.55-2.21-8.98,0-17.87.34-26.65,1l4.03-39.13c20.1-3.11,40.86-4.74,62.08-4.74,6.94,0,13.82.17,20.65.52h0Z"/>
      <path class="st13" d="M499.67,176.3c-5.77,13.08-13.83,32.1-19.61,45l-.3.68-.77-.08c-10.96-1.09-21.97-1.68-32.98-1.82-11.6-.11-23.21.24-34.77,1.2l.19-1.78c1.02-9.75,3.07-29.37,4.14-39.12l.11-1.07,1.04-.15c20.58-3.04,41.41-4.39,62.2-3.91l20.74,1.05h0ZM499.67,176.3c-27.82-.41-55.13,1.11-82.52,5.58l1.16-1.22c-.93,9.76-2.92,29.39-3.92,39.14l-1.59-1.64c11.07-.79,22.17-1.13,33.26-.82,11.09.25,22.16,1.1,33.16,2.48l-1.07.6c7.01-14.66,14.42-29.4,21.51-44.12h0Z"/>
    </g>
    <g>
      <path class="st4" d="M616.08,199.96l-32.53,50.05c-27.38-12.79-57.3-22.04-88.95-27.05l21.01-45.54c35.51,3.18,69.31,10.94,100.47,22.54h0Z"/>
      <path class="st11" d="M616.68,200.19c-10.7,16.77-21.55,33.63-32.46,50.26l-.39.59-.63-.3c-28.26-13.31-58.47-22.46-89.34-27.39l.28-.6c.17-.22,21.12-45.49,21.26-45.69,34.59,3.2,68.79,10.86,101.28,23.12h0ZM615.48,199.75c-31.56-11.93-67.46-18.84-99.56-22.19l-20.86,45.61-.38-.7c30.77,4.77,60.92,13.72,89.21,26.82l-1.02.29c10.78-16.73,21.61-33.23,32.6-49.82h.01Z"/>
    </g>
    <g>
      <path class="st3" d="M768.57,316.23c-32.08-23.87-72.71-39.29-117.55-41.99-8.41-.51-16.73-.55-24.92-.15-8.97-6.06-18.34-11.69-28.09-16.86l33.28-51.22c58.33,24.75,106.3,63.27,137.28,110.22h0Z"/>
      <path class="st8" d="M768.64,316.3c-23.23-16.27-49.42-28.35-77-35.02-21.45-5.25-43.72-7.62-65.75-6.88-9.11-6.23-18.59-11.94-28.38-17.04,9.56-15.05,23.41-36.53,33.07-51.81l.38-.59.66.27c54.88,22.92,105.01,60.44,137.02,111.07h0ZM768.5,316.16c-25.47-36.58-59.46-66.78-97.87-89.24-12.77-7.56-26.06-14.22-39.67-20.14l1.03-.32c-9.77,15.13-24.08,36.03-33.69,50.95l-.13-.5c9.24,5.03,20.03,11.23,27.91,16.79,6.31-.31,12.64-.47,18.97-.31,15.77.36,31.68,2.45,47.02,6.14,27.56,6.97,54.04,19.01,76.43,36.62h0Z"/>
    </g>
    <path class="st12" d="M241.65,282.16c-35.65,26.62-64,60.3-82.09,98.51,12.24-42.74,37.29-81.51,71.71-113.55l10.38,15.04Z"/>
  </g>
  <g id="_Слой_4">
    <path class="st7" d="M572.95,363.34c-1.76-2.22,3.42-11.58,11.46-14.68,1.49-.58,4.84-.7,11.46-.92,12.12-.4,14.14.06,16.05,1.38,3.64,2.5,5.88,7.37,4.59,9.17-.89,1.25-3.3.79-5.96.46,0,0-4.79-.6-17.89,0-12.51.57-18.12,6.61-19.72,4.59h0Z"/>
    <path class="st9" d="M448.21,299.14l70.17-151.8-112.82,171.06,42.65-19.26Z"/>
    <path class="st5" d="M518.15,436.71l-26.54-19.91c-.88-.66-.4-2.06.7-2.04l265.25,4.07c-80.26,2.12-160.51,4.25-240.77,6.37-.82.02-1.35.88-.99,1.62,1.35,2.83,2.7,5.66,4.05,8.48.51,1.07-.75,2.1-1.7,1.39v.02Z"/>
    <g class="st6">
      <g class="st6">
        <path class="st10" d="M100.87,571.57v-58.36c0-4.56,2.35-8.47,7.06-11.74,4.71-3.27,10.34-4.9,16.9-4.9h24.08c6.56,0,12.2,1.64,16.9,4.92,4.71,3.28,7.06,7.19,7.06,11.72v58.36h-23.96v-33.36h-24.08v33.36h-23.96ZM124.83,529.93h24.08v-16.72c0-2.27-1.19-4.21-3.57-5.84-2.38-1.63-5.2-2.44-8.47-2.44s-6.13.81-8.49,2.44c-2.36,1.63-3.54,3.57-3.54,5.84v16.72Z"/>
        <path class="st10" d="M271.71,513.21v58.36h-23.96v-8.36c-.94,5.57-4.95,8.36-12.04,8.36h-12.04c-6.56,0-12.2-1.63-16.9-4.9-4.71-3.27-7.06-7.18-7.06-11.74v-41.72h23.96v41.72c0,2.24,1.17,4.18,3.52,5.82,2.34,1.64,5.18,2.46,8.52,2.46s6.18-.82,8.52-2.46c2.34-1.64,3.52-3.58,3.52-5.82v-41.72h23.96Z"/>
        <path class="st10" d="M310.59,496.57h23.96v16.64h12.04v8.36h-12.04v33.36c0,2.68,1.27,4.73,3.82,6.15,2.55,1.42,4.91,2.13,7.09,2.13h1.12v8.36h-12.04c-6.6,0-12.24-1.63-16.93-4.9-4.69-3.27-7.03-7.18-7.03-11.74v-33.36h-12.04v-8.36h12.04v-16.64Z"/>
        <path class="st10" d="M397.39,513.21h24.08c6.56,0,12.2,1.65,16.9,4.94,4.71,3.29,7.06,7.22,7.06,11.78v25c0,4.51-2.35,8.41-7.06,11.7-4.71,3.29-10.34,4.94-16.9,4.94h-24.08c-6.56,0-12.2-1.63-16.9-4.9-4.71-3.27-7.06-7.18-7.06-11.74v-25c0-4.61,2.36-8.55,7.09-11.82,4.73-3.27,10.35-4.9,16.88-4.9ZM397.39,529.93v25c0,2.24,1.17,4.18,3.52,5.82,2.34,1.64,5.18,2.46,8.52,2.46s6.18-.82,8.52-2.46c2.34-1.64,3.52-3.58,3.52-5.82v-25c0-2.29-1.19-4.26-3.57-5.9-2.38-1.64-5.2-2.46-8.47-2.46s-6.13.82-8.49,2.46c-2.36,1.64-3.54,3.61-3.54,5.9Z"/>
        <path class="st10" d="M522.23,571.57v-66.64h-23.96v-8.36h72v8.36h-23.96v66.64h-24.08Z"/>
        <path class="st10" d="M657.19,546.57h-48.04v8.36c0,2.24,1.17,4.18,3.52,5.82,2.34,1.64,5.18,2.46,8.52,2.46h12.04c7.95,0,11.93-2.76,11.93-8.28h12.04c-1.88,11.09-9.86,16.64-23.96,16.64h-24.07c-6.56,0-12.2-1.63-16.9-4.9-4.71-3.27-7.06-7.18-7.06-11.74v-25c0-4.61,2.36-8.55,7.09-11.82,4.72-3.27,10.35-4.9,16.88-4.9h24.07c6.56,0,12.2,1.65,16.9,4.94,4.71,3.29,7.06,7.22,7.06,11.78v16.64ZM609.15,538.21h24.07v-8.28c0-2.29-1.19-4.26-3.57-5.9-2.38-1.64-5.2-2.46-8.46-2.46s-6.13.82-8.49,2.46c-2.36,1.64-3.54,3.61-3.54,5.9v8.28Z"/>
        <path class="st10" d="M707.99,571.57h-23.96v-58.36h23.96v16.72c.94-5.57,3.41-9.75,7.42-12.54,4.01-2.79,9.56-4.18,16.65-4.18h11.92v16.72h-23.96c-3.3,0-6.13.81-8.49,2.44-2.36,1.63-3.54,3.57-3.54,5.84v33.36Z"/>
        <path class="st10" d="M782.87,571.57h-23.96v-58.36h23.96v16.72c.94-5.57,3.41-9.75,7.42-12.54,4.01-2.79,9.56-4.18,16.65-4.18h11.92v16.72h-23.96c-3.3,0-6.13.81-8.49,2.44-2.36,1.63-3.54,3.57-3.54,5.84v33.36Z"/>
        <path class="st10" d="M881.83,538.21v-8.28c0-2.29-1.19-4.26-3.57-5.9-2.38-1.64-5.2-2.46-8.46-2.46h-12.04c-7.09,0-11.06,2.79-11.92,8.36h-12.04c1.84-11.14,9.82-16.72,23.96-16.72h24.08c6.56,0,12.2,1.65,16.9,4.94,4.71,3.29,7.06,7.22,7.06,11.78v41.64h-23.96v-8.36c-.94,5.57-4.95,8.36-12.04,8.36h-12.04c-6.56,0-12.2-1.63-16.9-4.9-4.71-3.27-7.06-7.18-7.06-11.74v-.08c0-4.56,2.36-8.47,7.09-11.74,4.73-3.27,10.35-4.9,16.88-4.9h24.08ZM881.83,546.57h-12.04c-3.3,0-6.13.81-8.49,2.44-2.36,1.63-3.54,3.57-3.54,5.84v.08c0,2.24,1.17,4.18,3.52,5.82,2.34,1.64,5.18,2.46,8.52,2.46s6.18-.82,8.52-2.46c2.34-1.64,3.52-3.58,3.52-5.82v-8.36Z"/>
      </g>
    </g>
  </g>
</svg>